<svg width="20" class="icon icon-facebook" height="20" viewBox="0 0 20 20" fill="none" xmlns="http://www.w3.org/2000/svg">
<path d="M17.5 6.66667V13.3333C17.5 14.4384 17.061 15.4982 16.2796 16.2796C15.4982 17.061 14.4384 17.5 13.3333 17.5H6.66667C5.5616 17.5 4.50179 17.061 3.72039 16.2796C2.93899 15.4982 2.5 14.4384 2.5 13.3333V6.66667C2.5 5.5616 2.93899 4.50179 3.72039 3.72039C4.50179 2.93899 5.5616 2.5 6.66667 2.5H13.3333C14.4384 2.5 15.4982 2.93899 16.2796 3.72039C17.061 4.50179 17.5 5.5616 17.5 6.66667Z" stroke="#556884" stroke-width="1.5" stroke-linecap="round" stroke-linejoin="round"/>
<path d="M8.33399 10C7.83953 10 7.35618 10.1466 6.94506 10.4213C6.53394 10.696 6.21351 11.0865 6.02429 11.5433C5.83507 12.0001 5.78556 12.5028 5.88202 12.9877C5.97849 13.4727 6.21659 13.9181 6.56622 14.2678C6.91585 14.6174 7.36131 14.8555 7.84626 14.952C8.33121 15.0484 8.83388 14.9989 9.29069 14.8097C9.74751 14.6205 10.138 14.3 10.4127 13.8889C10.6874 13.4778 10.834 12.9945 10.834 12.5V5C11.1115 5.83333 12.1673 7.5 14.1673 7.5" stroke="#556884" stroke-width="1.5" stroke-linecap="round" stroke-linejoin="round"/>
</svg>
